<svg width="66" height="23" viewBox="0 0 66 23" fill="none" xmlns="http://www.w3.org/2000/svg">
<path d="M29.4 9.56C30.4667 9.56 31.3267 9.88667 31.98 10.54C32.6333 11.1933 32.96 12.08 32.96 13.2V19.76C32.96 19.8267 32.9333 19.8867 32.88 19.94C32.84 19.98 32.7867 20 32.72 20H30.38C30.3133 20 30.2533 19.98 30.2 19.94C30.16 19.8867 30.14 19.8267 30.14 19.76V13.78C30.14 13.2467 29.9867 12.8133 29.68 12.48C29.3867 12.1467 28.9933 11.98 28.5 11.98C28.0067 11.98 27.6067 12.1467 27.3 12.48C27.0067 12.8133 26.86 13.2467 26.86 13.78V19.76C26.86 19.8267 26.8333 19.8867 26.78 19.94C26.74 19.98 26.6867 20 26.62 20H24.28C24.2133 20 24.1533 19.98 24.1 19.94C24.06 19.8867 24.04 19.8267 24.04 19.76V6.24C24.04 6.17333 24.06 6.12 24.1 6.08C24.1533 6.02667 24.2133 6 24.28 6H26.62C26.6867 6 26.74 6.02667 26.78 6.08C26.8333 6.12 26.86 6.17333 26.86 6.24V10.66C26.86 10.7 26.8733 10.7267 26.9 10.74C26.9267 10.7533 26.9467 10.7467 26.96 10.72C27.5067 9.94667 28.32 9.56 29.4 9.56ZM40.9775 9.96C40.9775 9.89333 40.9975 9.84 41.0375 9.8C41.0908 9.74667 41.1508 9.72 41.2175 9.72H43.5575C43.6242 9.72 43.6775 9.74667 43.7175 9.8C43.7708 9.84 43.7975 9.89333 43.7975 9.96V19.76C43.7975 19.8267 43.7708 19.8867 43.7175 19.94C43.6775 19.98 43.6242 20 43.5575 20H41.2175C41.1508 20 41.0908 19.98 41.0375 19.94C40.9975 19.8867 40.9775 19.8267 40.9775 19.76V19.08C40.9775 19.04 40.9642 19.02 40.9375 19.02C40.9108 19.0067 40.8842 19.02 40.8575 19.06C40.3242 19.78 39.4975 20.14 38.3775 20.14C37.3642 20.14 36.5308 19.8333 35.8775 19.22C35.2242 18.6067 34.8975 17.7467 34.8975 16.64V9.96C34.8975 9.89333 34.9175 9.84 34.9575 9.8C35.0108 9.74667 35.0708 9.72 35.1375 9.72H37.4575C37.5242 9.72 37.5775 9.74667 37.6175 9.8C37.6708 9.84 37.6975 9.89333 37.6975 9.96V15.94C37.6975 16.4733 37.8375 16.9067 38.1175 17.24C38.4108 17.5733 38.8108 17.74 39.3175 17.74C39.7708 17.74 40.1442 17.6067 40.4375 17.34C40.7308 17.06 40.9108 16.7 40.9775 16.26V9.96ZM46.1159 20C46.0493 20 45.9893 19.98 45.9359 19.94C45.8959 19.8867 45.8759 19.8267 45.8759 19.76V6.24C45.8759 6.17333 45.8959 6.12 45.9359 6.08C45.9893 6.02667 46.0493 6 46.1159 6H48.4559C48.5226 6 48.5759 6.02667 48.6159 6.08C48.6693 6.12 48.6959 6.17333 48.6959 6.24V12.98C48.6959 13.02 48.7093 13.0467 48.7359 13.06C48.7626 13.06 48.7893 13.0467 48.8159 13.02L51.5359 9.86C51.6293 9.76667 51.7293 9.72 51.8359 9.72H54.4959C54.6293 9.72 54.6959 9.76667 54.6959 9.86C54.6959 9.9 54.6759 9.95333 54.6359 10.02L52.0959 13.24C52.0693 13.2933 52.0626 13.34 52.0759 13.38L55.0559 19.72C55.0826 19.7733 55.0959 19.8133 55.0959 19.84C55.0959 19.9467 55.0226 20 54.8759 20H52.4159C52.2826 20 52.1893 19.94 52.1359 19.82L50.1559 15.14C50.1426 15.1133 50.1159 15.1 50.0759 15.1C50.0493 15.0867 50.0293 15.0933 50.0159 15.12L48.7359 16.72C48.7093 16.7733 48.6959 16.8133 48.6959 16.84V19.76C48.6959 19.8267 48.6693 19.8867 48.6159 19.94C48.5759 19.98 48.5226 20 48.4559 20H46.1159ZM60.162 20.16C59.042 20.16 58.082 19.8667 57.282 19.28C56.482 18.6933 55.9354 17.8933 55.642 16.88C55.4554 16.2533 55.362 15.5733 55.362 14.84C55.362 14.0533 55.4554 13.3467 55.642 12.72C55.9487 11.7333 56.502 10.96 57.302 10.4C58.102 9.84 59.062 9.56 60.182 9.56C61.2754 9.56 62.2087 9.84 62.982 10.4C63.7554 10.9467 64.302 11.7133 64.622 12.7C64.8354 13.3667 64.942 14.0667 64.942 14.8C64.942 15.52 64.8487 16.1933 64.662 16.82C64.3687 17.86 63.822 18.68 63.022 19.28C62.2354 19.8667 61.282 20.16 60.162 20.16ZM60.162 17.74C60.602 17.74 60.9754 17.6067 61.282 17.34C61.5887 17.0733 61.8087 16.7067 61.942 16.24C62.0487 15.8133 62.102 15.3467 62.102 14.84C62.102 14.28 62.0487 13.8067 61.942 13.42C61.7954 12.9667 61.5687 12.6133 61.262 12.36C60.9554 12.1067 60.582 11.98 60.142 11.98C59.6887 11.98 59.3087 12.1067 59.002 12.36C58.7087 12.6133 58.4954 12.9667 58.362 13.42C58.2554 13.74 58.202 14.2133 58.202 14.84C58.202 15.44 58.2487 15.9067 58.342 16.24C58.4754 16.7067 58.6954 17.0733 59.002 17.34C59.322 17.6067 59.7087 17.74 60.162 17.74Z" fill="white"/>
<path d="M7.8332 16.9344C7.47422 16.7234 7.13984 16.4649 6.8375 16.1625C6.53516 15.8602 6.27656 15.5258 6.06563 15.1668L1.14727 20.0848C0.911328 20.3211 0.78125 20.6348 0.78125 20.9688C0.78125 21.3027 0.911328 21.6164 1.14727 21.8527C1.38359 22.0887 1.69727 22.2188 2.03125 22.2188C2.36523 22.2188 2.67891 22.0887 2.91523 21.8527L7.8332 16.9344Z" fill="white"/>
<path d="M14.0434 19.9566C14.4914 19.7172 14.9156 19.4387 15.3117 19.1262C15.0008 19.0453 14.6887 18.9719 14.3754 18.9059C14.2738 19.2582 14.1629 19.6082 14.0434 19.9566Z" fill="white"/>
<path d="M13.8531 16.1625C12.916 17.0996 11.6703 17.6156 10.3453 17.6156C9.73203 17.6156 9.13555 17.5051 8.5793 17.2933L8.12695 17.7457C10.0227 17.5824 11.9324 17.6676 13.8133 18.0008C14.0105 17.232 14.1664 16.4558 14.2809 15.675C14.1508 15.8445 14.0082 16.0074 13.8531 16.1625Z" fill="white"/>
<path d="M7.24531 18.6273L6.56445 19.3082C6.68281 19.6777 6.81133 20.0453 6.95039 20.4102C7.89844 20.7711 8.92656 20.9688 10 20.9688C11.0734 20.9688 12.1016 20.7711 13.0496 20.4102C13.257 19.8645 13.4422 19.3129 13.6055 18.757C11.5008 18.3918 9.35898 18.3488 7.24531 18.6273Z" fill="white"/>
<path d="M12.2789 10.7211C11.7625 10.2047 11.0758 9.92032 10.3453 9.92032C9.61486 9.92032 8.92814 10.2047 8.41173 10.7211C8.05041 11.0828 7.81134 11.5211 7.69533 11.9844C7.63087 12.2402 7.60392 12.5035 7.61447 12.7656C7.64103 13.4285 7.90705 14.0836 8.41173 14.5883C8.92814 15.1047 9.61486 15.3891 10.3453 15.3891C11.0758 15.3891 11.7625 15.1047 12.2789 14.5883C12.7836 14.0836 13.0496 13.4285 13.0762 12.7656C13.0867 12.5035 13.0598 12.2402 12.9953 11.9844C12.8793 11.5211 12.6402 11.0828 12.2789 10.7211Z" fill="white"/>
<path d="M4.87343 15.2539C4.77108 14.427 4.71327 13.5965 4.70077 12.7656H1.41522C1.48905 14.4133 2.02889 15.9414 2.90624 17.2211L4.87343 15.2539Z" fill="white"/>
<path d="M5.42811 6.60117C4.94491 6.49844 4.46366 6.37852 3.98592 6.24219C2.48163 7.71758 1.516 9.74023 1.41522 11.9844H4.70116C4.7328 10.1754 4.97499 8.36953 5.42811 6.60117Z" fill="white"/>
<path d="M6.8375 9.14686C7.77422 8.20975 9.02031 7.69374 10.3453 7.69374C11.6703 7.69374 12.916 8.20975 13.8531 9.14686C14.0422 9.33593 14.2129 9.53671 14.3648 9.74686C14.2461 8.74022 14.059 7.73983 13.8035 6.75116C12.5445 6.97343 11.2723 7.08475 10 7.08475C8.72773 7.08475 7.45547 6.97343 6.19648 6.75116C5.7832 8.35116 5.54844 9.98319 5.49219 11.6199C5.68828 10.6894 6.14922 9.83475 6.8375 9.14686Z" fill="white"/>
<path d="M15.2988 11.9844H18.5848C18.484 9.74023 17.5184 7.71758 16.0141 6.24219C15.5363 6.37852 15.0551 6.49844 14.5719 6.60117C15.025 8.36953 15.2672 10.1754 15.2988 11.9844Z" fill="white"/>
<path d="M15.3117 5.62382C14.9109 5.30742 14.4812 5.02617 14.0273 4.78476C14.1488 5.13671 14.2613 5.49062 14.3648 5.84648C14.6816 5.78007 14.9973 5.70546 15.3117 5.62382Z" fill="white"/>
<path d="M5.97267 4.78476C5.51876 5.02617 5.08907 5.30742 4.68829 5.62382C5.00275 5.70546 5.31837 5.78007 5.63517 5.84648C5.73868 5.49062 5.85118 5.13671 5.97267 4.78476Z" fill="white"/>
<path d="M13.5941 5.99492C13.4293 5.43633 13.2422 4.88203 13.0324 4.33359C12.0891 3.97656 11.0668 3.78125 9.99999 3.78125C8.9332 3.78125 7.91093 3.97656 6.96757 4.33359C6.75781 4.88203 6.5707 5.43633 6.40585 5.99492C8.78593 6.40664 11.2141 6.40664 13.5941 5.99492Z" fill="white"/>
<path d="M14.4691 11.9844C14.3344 11.1473 13.9449 10.3434 13.3008 9.69922C12.5113 8.90977 11.4617 8.47501 10.3453 8.47501C9.22891 8.47501 8.1793 8.90977 7.38984 9.69922C6.7457 10.3434 6.35625 11.1473 6.22149 11.9844C6.17969 12.2426 6.16211 12.5043 6.16914 12.7656C6.17813 13.1145 6.23086 13.4625 6.32695 13.8004C6.40352 14.0719 6.5082 14.3371 6.64102 14.5914C6.83242 14.9582 7.08203 15.3024 7.38984 15.6102C7.69375 15.9141 8.03711 16.166 8.40742 16.3602C8.65898 16.4922 8.92344 16.5981 9.19727 16.6754C9.56602 16.7805 9.95156 16.8344 10.3453 16.8344C11.4617 16.8344 12.5113 16.3996 13.3008 15.6102C14.0516 14.8594 14.4566 13.8918 14.5152 12.907C14.5234 12.7748 14.5252 12.6422 14.5203 12.5098C14.5145 12.334 14.4973 12.1586 14.4691 11.9844C14.4973 12.1586 14.3344 11.1473 14.4691 11.9844ZM12.8313 15.1406C12.1672 15.8047 11.2844 16.1703 10.3453 16.1703C10.1023 16.1703 9.86328 16.1457 9.63047 16.0977C8.96406 15.9613 8.35156 15.6328 7.85938 15.1406C7.35664 14.6379 7.03789 14.0188 6.9043 13.3691C6.86289 13.1699 6.83945 12.968 6.8332 12.7656C6.825 12.5043 6.8457 12.2422 6.89531 11.9844C7.02344 11.3184 7.34492 10.6832 7.85938 10.1688C8.52344 9.50469 9.40625 9.13907 10.3453 9.13907C11.2844 9.13907 12.1672 9.50469 12.8313 10.1688C13.3457 10.6832 13.6672 11.3184 13.7953 11.9844C13.8449 12.2422 13.8656 12.5043 13.8574 12.7656C13.8305 13.6285 13.4883 14.4836 12.8313 15.1406Z" fill="white"/>
<path d="M15.2969 12.9117V12.9156C15.2574 14.6746 15.0191 16.4305 14.5812 18.1508C15.0613 18.2531 15.539 18.3723 16.0141 18.5078C17.5183 17.0324 18.484 15.0098 18.5848 12.7656H15.3023C15.3043 12.6855 15.298 12.8629 15.2969 12.9117Z" fill="white"/>
</svg>
